<?xml version="1.0" encoding="UTF-8" standalone="no"?>
<!DOCTYPE svg PUBLIC "-//W3C//DTD SVG 1.1//EN" "http://www.w3.org/Graphics/SVG/1.1/DTD/svg11.dtd">
<svg width="100%" height="100%" viewBox="0 0 100 100" version="1.1" xmlns="http://www.w3.org/2000/svg" xmlns:xlink="http://www.w3.org/1999/xlink" xml:space="preserve" xmlns:serif="http://www.serif.com/" style="fill-rule:evenodd;clip-rule:evenodd;stroke-linecap:round;stroke-linejoin:round;stroke-miterlimit:1.5;">
    <g transform="matrix(0.774457,0,0,0.774457,0.902174,21.6522)">
        <g transform="matrix(1.01099,0,0,1.01099,-1.05495,-0.043956)">
            <path d="M96,31L96,95L5,95L5,4L69,4" style="fill:none;stroke:black;stroke-width:8.94px;"/>
        </g>
        <g transform="matrix(1.11364,0.113636,0.113636,1.11364,-14.8636,-7.86364)">
            <path d="M75,3L97,25" style="fill:none;stroke:black;stroke-width:7.36px;"/>
        </g>
        <path d="M69,4L69,31L96,31" style="fill:none;stroke:black;stroke-width:9.04px;"/>
    </g>
    <g transform="matrix(1,0,0,1,21,-20.9103)">
        <path d="M54.11,24.75L54.34,45.66L75.25,45.66L54.11,24.75Z" style="fill:none;stroke:black;stroke-width:7px;"/>
    </g>
    <g transform="matrix(1,0,0,1,20.7702,-20.9103)">
        <path d="M4,24.75L54.34,24.75" style="fill:none;stroke:black;stroke-width:7px;"/>
    </g>
    <g transform="matrix(6.12323e-17,-1,1,6.12323e-17,71.5,79.1698)">
        <path d="M4,24.75L54.34,24.75" style="fill:none;stroke:black;stroke-width:7px;"/>
    </g>
    <path d="M24.77,3.84L24.77,24.75" style="fill:none;stroke:black;stroke-width:7px;"/>
    <path d="M96.25,75.17L75.25,75.17" style="fill:none;stroke:black;stroke-width:7px;"/>
</svg>
