<?xml version="1.0" encoding="UTF-8" standalone="no"?>
<!DOCTYPE svg PUBLIC "-//W3C//DTD SVG 1.1//EN" "http://www.w3.org/Graphics/SVG/1.1/DTD/svg11.dtd">
<svg width="100%" height="100%" viewBox="0 0 100 100" version="1.1" xmlns="http://www.w3.org/2000/svg" xmlns:xlink="http://www.w3.org/1999/xlink" xml:space="preserve" xmlns:serif="http://www.serif.com/" style="fill-rule:evenodd;clip-rule:evenodd;stroke-linecap:round;stroke-linejoin:round;stroke-miterlimit:1.5;">
    <g transform="matrix(1.01099,0,0,1.01099,-1.05495,-0.043956)">
        <path d="M96,31L96,95L5,95L5,4L69,4" style="fill:none;stroke:black;stroke-width:6.92px;"/>
    </g>
    <g transform="matrix(1.11364,0.113636,0.113636,1.11364,-14.8636,-7.86364)">
        <path d="M75,3L97,25" style="fill:none;stroke:black;stroke-width:5.7px;"/>
    </g>
    <path d="M59,4L19,4L19,28.531C19,29.895 20.105,31 21.469,31L56.197,31C56.94,31 57.653,30.705 58.179,30.179C58.705,29.653 59,28.94 59,28.197C59,21.288 59,4 59,4ZM52,7.682L36,7.682L36,24.864L52,24.864L52,7.682Z"/>
</svg>
